<svg width="315" height="14" viewBox="0 0 315 14" fill="none" xmlns="http://www.w3.org/2000/svg">
<line opacity="0.2" y1="6.5" x2="132" y2="6.5" stroke="#CDD1D0"/>
<line opacity="0.2" x1="183" y1="6.5" x2="315" y2="6.5" stroke="#CDD1D0"/>
<path d="M150.084 4.16C149.384 4.84133 149.034 5.798 149.034 7.03C149.034 8.262 149.384 9.22333 150.084 9.914C150.784 10.6047 151.628 10.95 152.618 10.95C153.607 10.95 154.452 10.6047 155.152 9.914C155.852 9.22333 156.202 8.262 156.202 7.03C156.202 5.798 155.852 4.84133 155.152 4.16C154.452 3.46933 153.607 3.124 152.618 3.124C151.628 3.124 150.784 3.46933 150.084 4.16ZM147.634 7.03C147.634 6.22733 147.774 5.49467 148.054 4.832C148.343 4.16933 148.721 3.628 149.188 3.208C149.664 2.77867 150.196 2.44733 150.784 2.214C151.372 1.98067 151.983 1.864 152.618 1.864C153.252 1.864 153.864 1.98067 154.452 2.214C155.04 2.44733 155.567 2.77867 156.034 3.208C156.51 3.628 156.888 4.16933 157.168 4.832C157.457 5.49467 157.602 6.22733 157.602 7.03C157.602 8.094 157.354 9.02733 156.86 9.83C156.374 10.6327 155.758 11.23 155.012 11.622C154.265 12.014 153.467 12.21 152.618 12.21C151.768 12.21 150.97 12.014 150.224 11.622C149.477 11.23 148.856 10.6327 148.362 9.83C147.876 9.02733 147.634 8.094 147.634 7.03ZM164.726 12L162.458 7.94H160.974V12H159.588V2.074H163.326C164.241 2.074 164.974 2.35867 165.524 2.928C166.084 3.488 166.364 4.188 166.364 5.028C166.364 5.74667 166.15 6.36267 165.72 6.876C165.291 7.38 164.703 7.702 163.956 7.842L166.322 12H164.726ZM160.974 6.708H163.074C163.634 6.708 164.087 6.55867 164.432 6.26C164.778 5.952 164.95 5.54133 164.95 5.028C164.95 4.50533 164.778 4.09 164.432 3.782C164.087 3.46467 163.634 3.306 163.074 3.306H160.974V6.708Z" fill="#D6E4E0"/>
</svg>
