<svg width="44" height="44" viewBox="0 0 44 44" fill="none" xmlns="http://www.w3.org/2000/svg">
<circle cx="22" cy="22" r="22" fill="#F2F8F7"/>
<ellipse cx="20" cy="27.5" rx="7" ry="3.5" stroke="#797C7B" stroke-width="1.5" stroke-linejoin="round"/>
<circle cx="20" cy="17" r="4" stroke="#797C7B" stroke-width="1.5" stroke-linejoin="round"/>
<path fill-rule="evenodd" clip-rule="evenodd" d="M25.0443 20.2496C24.7223 20.7485 24.3283 21.1965 23.877 21.5791C24.2314 21.6901 24.6085 21.75 24.9996 21.75C27.0707 21.75 28.7496 20.0711 28.7496 18C28.7496 16.0442 27.2524 14.4381 25.3416 14.2654C25.6078 14.7843 25.8006 15.3472 25.9063 15.9401C26.6974 16.2889 27.2496 17.0799 27.2496 18C27.2496 19.2277 26.2663 20.2257 25.0443 20.2496Z" fill="#797C7B"/>
<path fill-rule="evenodd" clip-rule="evenodd" d="M28.9992 27.5563C28.9891 28.1705 28.8143 28.7606 28.5004 29.3109C28.8688 29.2095 29.2139 29.0921 29.5307 28.9601C30.1279 28.7113 30.6601 28.3959 31.0545 28.0074C31.4515 27.6163 31.7496 27.1065 31.7496 26.5C31.7496 25.8936 31.4515 25.3837 31.0545 24.9926C30.6601 24.6041 30.1279 24.2887 29.5307 24.0399C28.5081 23.6138 27.1902 23.3394 25.749 23.2684C26.7512 23.7775 27.5697 24.417 28.1347 25.1443C28.4324 25.2275 28.7067 25.3216 28.9538 25.4246C29.4425 25.6282 29.7889 25.8515 30.0018 26.0612C30.212 26.2683 30.2496 26.4161 30.2496 26.5C30.2496 26.5839 30.212 26.7318 30.0018 26.9388C29.7956 27.142 29.464 27.3579 28.9992 27.5563Z" fill="#797C7B"/>
</svg>
